<?xml version="1.0" encoding="UTF-8"?>
<!DOCTYPE svg PUBLIC "-//W3C//DTD SVG 1.1//EN" "http://www.w3.org/Graphics/SVG/1.1/DTD/svg11.dtd">
<!-- Creator: CorelDRAW 2020 (64-Bit) -->
<svg xmlns="http://www.w3.org/2000/svg" xml:space="preserve" width="169.333mm" height="169.333mm" version="1.1" style="shape-rendering:geometricPrecision; text-rendering:geometricPrecision; image-rendering:optimizeQuality; fill-rule:evenodd; clip-rule:evenodd"
viewBox="0 0 16933.32 16933.32"
 xmlns:xlink="http://www.w3.org/1999/xlink"
 xmlns:xodm="http://www.corel.com/coreldraw/odm/2003">
 <defs>
  <style type="text/css">
   <![CDATA[
    .str2 {stroke:#373435;stroke-width:33.87;stroke-miterlimit:2.61313}
    .str1 {stroke:#373435;stroke-width:17.64;stroke-miterlimit:2.61313}
    .str0 {stroke:#373435;stroke-width:33.87;stroke-linecap:round;stroke-miterlimit:2.61313}
    .fil12 {fill:none}
    .fil11 {fill:#E6E7E8}
    .fil6 {fill:#D2D3D5}
    .fil0 {fill:#BDBFC1}
    .fil1 {fill:#A9ABAE}
    .fil2 {fill:#96989A}
    .fil7 {fill:#848688}
    .fil3 {fill:#727376}
    .fil9 {fill:#606062}
    .fil8 {fill:#4B4B4D}
    .fil13 {fill:#373435}
    .fil4 {fill:#F58634}
    .fil5 {fill:#F47B35}
    .fil10 {fill:#E87537}
   ]]>
  </style>
 </defs>
 <g id="Layer_x0020_1">
  <metadata id="CorelCorpID_0Corel-Layer"/>
  <g id="Fox">
   <path class="fil0" d="M7351.6 14839.52c-820.15,-23.34 -1357.08,-377.01 -1610.81,-1061 695.93,-36.42 1232.86,79.8 1610.81,348.66l0 712.34z"/>
   <path class="fil1" d="M5142.82 4892.61c-1248.41,-1636.31 -2080.52,-2407.41 -2496.29,-2313.33 -154.12,135.27 -263.77,455.47 -328.91,960.63 -186.27,1201.51 -20.51,2450.93 497.31,3748.27 1759.27,-451.18 2535.24,-1249.72 2327.89,-2395.57z"/>
   <path class="fil0" d="M2526.32 2922.65c107.29,-216.45 229.55,-260.8 366.78,-133.06 -488.57,1219.41 -447.59,2646.85 122.95,4282.31 -103.06,85.02 -170.1,157.12 -201.12,216.28 -599.7,-1532.98 -745.28,-3322.17 -288.61,-4365.53z"/>
   <path class="fil2" d="M4481.97 4790.43c918.66,848.95 361.48,1677.77 -1671.54,2486.45 -44.79,-109.4 -103.71,-270.62 -176.76,-483.66 714.79,-611.8 1167.79,-957.81 1359.02,-1038.02 341.29,-234.08 504.37,-555.67 489.28,-964.77z"/>
   <path class="fil3" d="M2701.28 2572c-223.71,164.98 -351.6,487.62 -383.66,967.91 175.79,-470.58 289.7,-620.82 368.12,-712.32 472.37,-106.28 1018.47,551.18 1683.63,2003.93 70.97,154.99 146.11,662.28 91.62,894.99 904.01,-520.23 -847.31,-3094.96 -1759.71,-3154.51z"/>
   <path class="fil4" d="M7351.6 4501.44c-556.15,88.02 -1070.22,118.19 -1542.23,90.55 -644.7,-100.41 -1206.72,-518.62 -1685.98,-1254.68 -553.54,-686.11 -1041.47,-977.98 -1463.79,-875.67 -199.25,48.59 -304.53,457.54 -341.99,1078.27 154.39,-629.62 320.66,-897.55 498.81,-803.79 622.13,-70.19 1402.29,1317.55 1751.34,2274.11 96.48,410.86 -106.26,849.74 -433.01,1111.14 -1600.12,1108.09 -2522.04,2659.76 -3331.06,4548 -87.58,469.94 147.67,687.77 705.78,653.5 1172.42,147.74 2381.49,718.82 3361.21,1747.32 470.38,577.59 1208.68,941.29 2480.92,1056.98l0 -9625.73z"/>
   <path class="fil5" d="M4134.75 6121.37c377.72,-355.67 522.05,-726.06 433.01,-1111.14 250.54,586.31 41.44,1104.74 -627.34,1555.28 -1153.84,1095.46 -2014.13,2476.48 -2580.87,4143.07 -30.5,262.24 -213.06,367.27 -547.69,315.13 36.2,-110.61 -52.55,-249.44 -8.15,-354.34 901.8,-2130.34 1946.44,-3651.38 3331.04,-4548z"/>
   <path class="fil3" d="M7351.6 12918.28c10,945.62 -522.36,1232.13 -1597.1,859.53 686.59,391.17 1218.95,557.75 1597.1,499.71l0 -1359.24z"/>
   <path class="fil6" d="M7351.6 12049.14c-1065.14,-43.14 -1934.31,-477.96 -2574.73,-1510.45 -217.56,-378.07 -810.31,-509.72 -1450.73,-418.24 -1110.91,196.04 -1935.18,503.11 -2514.28,903.26 68.76,244.26 388.86,357.58 960.36,339.94 1301.75,344.45 2290.23,918.98 2965.44,1723.62 458.67,572.04 1329.98,918.67 2613.94,1039.91l0 -2078.04z"/>
   <path class="fil0" d="M6712.23 11969.43c49.98,119.38 18.82,162.54 -93.5,129.46 -733.36,-168.8 -1083.83,-174.83 -2011.76,-1429.52 -548.32,-741.4 -2293.66,-317.79 -3602.21,275.95 -227.2,103.08 -75.04,253.28 157.36,365.07 -171.69,-36.32 -288.45,-131.89 -350.26,-286.68 489.65,-384.27 1397.44,-689.71 2723.4,-916.32 668.03,-79.48 1131.56,138.87 1390.57,655.05 476.02,656.7 1071.48,1059.03 1786.4,1206.99z"/>
   <path class="fil5" d="M7351.6 5515.83c-1562.73,406.18 -2778.2,1174.3 -3646.43,2304.37 609.16,-134.99 2159.68,133.83 2394.1,1750.88 89.12,614.73 805.67,1135.7 1252.33,1870.34l0 -5925.59z"/>
   <path class="fil7" d="M6852.9 11617.35c158.5,95.83 799.29,136.81 498.7,-378.51 -535.87,-667.47 -1058.04,-1057.83 -1163.21,-1641.17 -287.51,-1594.49 -1247.62,-2171.72 -2483.22,-1777.47 388.31,56.54 593.06,191.6 614.27,405.16 -241.56,1323.55 215.88,1850.68 1372.31,1581.42 557.15,566.44 944.21,1169.97 1161.15,1810.57z"/>
   <circle class="fil6" cx="5162.43" cy="9003" r="764.57"/>
   <path class="fil8" d="M5864.5 8699.74c-99.46,-172.39 -182.96,-276.97 -250.48,-313.78 -391.84,83.07 -596.82,330.15 -614.96,741.21 364.57,-360.34 653.05,-502.8 865.44,-427.43z"/>
   <path class="fil9" d="M7351.6 11441.42c-430.42,77.92 -680.93,245.02 -751.5,501.32 33.93,499.82 284.43,825 751.5,975.54l0 -1476.86z"/>
   <path class="fil6" d="M7351.6 4501.44c-954.11,122.35 -1671.77,158.74 -2182.83,-128.4 402.8,698.48 1263.44,960.43 2182.83,611.95 0,-322.37 0,-483.55 0,-483.55z"/>
   <path class="fil0" d="M7351.59 4671.3c-1626.12,243.87 -2256.56,-124.17 -2699.74,-682.89 539.71,502.08 1102.01,761.79 2699.74,513.03 0,146.84 0,169.86 0,169.86z"/>
   <path class="fil10" d="M7351.6 6156.24c-1178.45,488.7 -1801.44,960.58 -1868.97,1415.63 399.56,1184.74 1022.55,2176.67 1868.97,2975.77l0 -4391.4z"/>
   <path class="fil11" d="M4601.52 12947.8c-778.72,-788.49 -1703.22,-1285.82 -2790.45,-1576.8 1288.43,84.73 2486.15,700.42 3593.14,1846.94 600.93,519.38 1250.04,750.01 1947.39,691.9 0,144.9 0,217.33 0,217.33 -875.67,162.5 -1790.92,-207.89 -2750.08,-1179.37z"/>
   <path class="fil3" d="M6005.42 13688.46c-521.51,-558.47 -564.95,-1285.48 -248.33,-1699.04 -379.01,535.85 -26.13,1568.35 485.47,1719.55l-237.14 -20.51z"/>
   <path class="fil3" d="M7325.45 12865.07c0,93.89 25.36,-29.79 26.15,53.21 5.21,541.1 0,1058.61 0,1058.61 -503.9,42.7 -996.56,-8.13 -1346.18,-288.43 72.16,29.58 103.84,-20.58 169.91,0 890.24,277.43 1071.7,116.7 1150.12,-823.39z"/>
   <path class="fil12 str0" d="M6253.75 12433.77c-1704.46,-122.1 -3460.14,117.51 -5267.07,718.84"/>
   <path class="fil12 str0" d="M6279.88 12891.22c-1570.28,595.04 -2973.1,1387.94 -4208.43,2378.67"/>
   <circle class="fil13 str1" cx="6404.04" cy="13041.51" r="19.6"/>
   <circle class="fil13 str1" cx="6025.02" cy="12675.57" r="19.6"/>
   <circle class="fil13 str1" cx="6482.46" cy="12675.57" r="19.6"/>
   <circle class="fil13 str1" cx="6286.41" cy="13485.88" r="19.6"/>
   <path class="fil0" d="M4511.64 9404.52c215.38,389.09 685.57,421.17 948.27,293.29 205.7,-100.14 467.09,-309.26 465.92,-737.73 -327.52,671.15 -779.72,831.79 -1414.19,444.44z"/>
   <path class="fil8" d="M7351.6 11517.89c-309.35,35.32 -535.9,166.35 -679.63,393.11 286.8,170.43 513.34,239.81 679.63,208.1l0 -601.21z"/>
   <path class="fil9" d="M7100.2 12103.05c-104.33,55.4 -161.65,35.5 -171.96,-59.71 122.25,-91.21 180.15,-199.79 173.71,-325.71 69.68,159.13 69.1,287.59 -1.75,385.42z"/>
   <path class="fil1" d="M7351.59 12918.29c-474.69,-155.94 -739.95,-493.45 -751.5,-975.55 82.61,445.45 333.12,736.53 751.5,873.22l0 102.33z"/>
   <path class="fil12 str0" d="M7354.3 4574.57c4082.95,1010.23 6963.39,4791.03 6963.39,9140.02"/>
   <path class="fil12 str0" d="M13479.96 10540.93c11.16,-0.98 22.36,-1.47 33.57,-1.47 212.72,0 385.17,172.44 385.17,385.17 0,212.72 -172.45,385.16 -385.17,385.16 -76.75,0 -151.76,-22.93 -215.38,-65.85"/>
   <path class="fil12 str0" d="M8850.71 15112.35c651.43,-2271.81 2728.93,-3837.32 5092.3,-3837.32 649.02,0 1292.53,119.26 1898.46,351.86"/>
   <path class="fil12 str0" d="M10339.7 12049.71c-193.6,1222.31 -1247.38,2122.33 -2484.93,2122.33 -161.14,0 -321.89,-15.48 -480.05,-46.22"/>
   <path class="fil12 str0" d="M7364.07 11462.17c40.28,-4.24 80.76,-6.36 121.27,-6.36 640.73,0 1160.13,519.4 1160.13,1160.13 0,385.67 -191.65,746.13 -511.39,961.8"/>
   <path class="fil12 str0" d="M8092.4 11045.21c171.62,206.51 265.57,466.58 265.57,735.09 0,573.35 -422.29,1059.15 -990.07,1138.94"/>
   <circle class="fil12 str0" cx="9619.17" cy="8989.94" r="764.57"/>
   <path class="fil12 str0" d="M10941.79 1656.08c11.31,100.42 16.99,201.37 16.99,302.4 0,1490.54 -1208.32,2698.87 -2698.86,2698.87 -299.01,0 -595.95,-49.69 -878.67,-147.03"/>
   <path class="fil12 str0" d="M10666.15 5591.52c-259.61,-344.52 -400.04,-764.18 -400.04,-1195.55 0,-1097.17 889.42,-1986.58 1986.58,-1986.58 873.43,0 1644.41,570.48 1899.79,1405.75"/>
   <path class="fil12 str0" d="M12111.44 1372.78c211,871.12 317.62,1764.22 317.62,2660.53 0,2454.19 -798.86,4841.69 -2275.8,6801.68"/>
   <path class="fil12 str0" d="M11280.83 3118.69c-5.56,-31.45 -8.34,-63.33 -8.34,-95.28 0,-303.02 245.65,-548.68 548.68,-548.68 303.03,0 548.69,245.66 548.69,548.68 0,241.25 -157.56,454.18 -388.27,524.71"/>
   <path class="fil12 str0" d="M9254.63 12309.58c55.51,184.48 83.72,376.09 83.72,568.74 0,1090.04 -883.66,1973.69 -1973.69,1973.69 -4.59,0 -9.17,-0.02 -13.76,-0.05"/>
   <line class="fil12 str0" x1="11363.96" y1="10538.69" x2="16147.45" y2= "10538.69" />
   <line class="fil12 str0" x1="13899.51" y1="5310.84" x2="13899.51" y2= "14616.41" />
   <line class="fil12 str0" x1="7351.6" y1="814.88" x2="7351.6" y2= "16118.45" />
   <line class="fil12 str0" x1="8145.66" y1="8644.41" x2="12102.27" y2= "8644.41" />
   <line class="fil12 str0" x1="10383.72" y1="9688.51" x2="10383.72" y2= "7347.61" />
   <line class="fil12 str2" x1="8355.93" y1="12722.34" x2="8355.93" y2= "10169.11" />
   <line class="fil12 str2" x1="8920.59" y1="8225.38" x2="14487.1" y2= "8225.38" />
  </g>
 </g>
</svg>
